<?xml version="1.0" standalone="yes"?>

<svg version="1.1" viewBox="0.0 0.0 960.0 720.0" fill="none" stroke="none" stroke-linecap="square" stroke-miterlimit="10" xmlns="http://www.w3.org/2000/svg" xmlns:xlink="http://www.w3.org/1999/xlink"><clipPath id="p.0"><path d="m0 0l960.0 0l0 720.0l-960.0 0l0 -720.0z" clip-rule="nonzero"></path></clipPath><g clip-path="url(#p.0)"><path fill="#000000" fill-opacity="0.0" d="m0 0l960.0 0l0 720.0l-960.0 0z" fill-rule="nonzero"></path><path fill="#d9d2e9" d="m228.37927 83.67846l0 0c0 -5.627327 4.561844 -10.189178 10.189178 -10.189178l248.28305 0c2.7023315 0 5.2940063 1.0735016 7.204834 2.9843445c1.9108582 1.9108429 2.9843445 4.502495 2.9843445 7.204834l0 40.7555c0 5.6273346 -4.561859 10.189178 -10.189178 10.189178l-248.28305 0c-5.6273346 0 -10.189178 -4.561844 -10.189178 -10.189178z" fill-rule="nonzero"></path><path stroke="#666666" stroke-width="1.0" stroke-linejoin="round" stroke-linecap="butt" d="m228.37927 83.67846l0 0c0 -5.627327 4.561844 -10.189178 10.189178 -10.189178l248.28305 0c2.7023315 0 5.2940063 1.0735016 7.204834 2.9843445c1.9108582 1.9108429 2.9843445 4.502495 2.9843445 7.204834l0 40.7555c0 5.6273346 -4.561859 10.189178 -10.189178 10.189178l-248.28305 0c-5.6273346 0 -10.189178 -4.561844 -10.189178 -10.189178z" fill-rule="nonzero"></path><path fill="#000000" d="m359.2761 92.46496l-5.859375 22.53125l-3.375 0l-4.75 -18.703125l-4.625 18.703125l-3.296875 0l-5.96875 -22.53125l3.078125 0l4.734375 18.734375l4.65625 -18.734375l3.046875 0l4.703125 18.90625l4.71875 -18.90625l2.9375 0zm17.999481 14.375l-12.453125 0q0 1.5625 0.46875 2.71875q0.46875 1.15625 1.28125 1.890625q0.78125 0.734375 1.859375 1.09375q1.09375 0.359375 2.390625 0.359375q1.734375 0 3.484375 -0.6875q1.75 -0.6875 2.484375 -1.34375l0.15625 0l0 3.09375q-1.4375 0.609375 -2.9375 1.015625q-1.5 0.40625 -3.15625 0.40625q-4.203125 0 -6.5625 -2.265625q-2.359375 -2.28125 -2.359375 -6.484375q0 -4.140625 2.25 -6.578125q2.265625 -2.4375 5.96875 -2.4375q3.421875 0 5.265625 2.0q1.859375 2.0 1.859375 5.671875l0 1.546875zm-2.765625 -2.1875q-0.015625 -2.234375 -1.140625 -3.453125q-1.109375 -1.234375 -3.375 -1.234375q-2.28125 0 -3.640625 1.34375q-1.359375 1.34375 -1.53125 3.34375l9.6875 0zm9.746399 10.34375l-2.84375 0l0 -23.546875l2.84375 0l0 23.546875zm8.412506 0l-2.84375 0l0 -23.546875l2.84375 0l0 23.546875z" fill-rule="nonzero"></path><path fill="#000000" fill-opacity="0.0" d="m362.70996 134.62314l134.33072 86.12599" fill-rule="nonzero"></path><path stroke="#666666" stroke-width="1.0" stroke-linejoin="round" stroke-linecap="butt" d="m362.70996 134.62314l129.27975 82.88754" fill-rule="evenodd"></path><path fill="#666666" stroke="#666666" stroke-width="1.0" stroke-linecap="butt" d="m491.09818 218.90117l4.7118225 1.0588989l-2.9288025 -3.8398743z" fill-rule="evenodd"></path><path fill="#000000" fill-opacity="0.0" d="m362.70996 134.62314l-170.40157 86.12599" fill-rule="nonzero"></path><path stroke="#666666" stroke-width="1.0" stroke-linejoin="round" stroke-linecap="butt" d="m362.70996 134.62314l-165.04668 83.419464" fill-rule="evenodd"></path><path fill="#666666" stroke="#666666" stroke-width="1.0" stroke-linecap="butt" d="m196.91821 216.56847l-3.3050995 3.5212097l4.7952423 -0.572937z" fill-rule="evenodd"></path><path fill="#000000" fill-opacity="0.0" d="m497.04068 281.883l120.97116 90.61417" fill-rule="nonzero"></path><path stroke="#666666" stroke-width="1.0" stroke-linejoin="round" stroke-linecap="butt" d="m497.04068 281.88297l116.168976 87.01709" fill-rule="evenodd"></path><path fill="#666666" stroke="#666666" stroke-width="1.0" stroke-linecap="butt" d="m612.2194 370.22205l4.6223145 1.3986816l-2.6418457 -4.042633z" fill-rule="evenodd"></path><path fill="#000000" fill-opacity="0.0" d="m497.04068 281.883l-170.40158 91.9606" fill-rule="nonzero"></path><path stroke="#666666" stroke-width="1.0" stroke-linejoin="round" stroke-linecap="butt" d="m497.04068 281.88297l-165.1214 89.111115" fill-rule="evenodd"></path><path fill="#666666" stroke="#666666" stroke-width="1.0" stroke-linecap="butt" d="m331.13483 369.54053l-3.209198 3.6087952l4.778076 -0.70166016z" fill-rule="evenodd"></path><path fill="#000000" fill-opacity="0.0" d="m618.01184 433.631l149.67975 90.61417" fill-rule="nonzero"></path><path stroke="#666666" stroke-width="1.0" stroke-linejoin="round" stroke-linecap="butt" d="m618.01184 433.63104l144.54706 87.5069" fill-rule="evenodd"></path><path fill="#666666" stroke="#666666" stroke-width="1.0" stroke-linecap="butt" d="m761.7035 522.5509l4.737549 0.9371948l-3.0267334 -3.7631836z" fill-rule="evenodd"></path><path fill="#000000" fill-opacity="0.0" d="m618.01184 433.631l-146.54596 93.3071" fill-rule="nonzero"></path><path stroke="#666666" stroke-width="1.0" stroke-linejoin="round" stroke-linecap="butt" d="m618.01184 433.63104l-141.48477 90.084595" fill-rule="evenodd"></path><path fill="#666666" stroke="#666666" stroke-width="1.0" stroke-linecap="butt" d="m475.63995 522.3223l-2.940918 3.8306274l4.715149 -1.0440674z" fill-rule="evenodd"></path><path fill="#d9d2e9" d="m362.70996 230.93831l0 0c0 -5.6273346 4.561859 -10.189178 10.189178 -10.189178l248.28305 0c2.7023315 0 5.2940063 1.0734863 7.204834 2.9843292c1.9108887 1.9108429 2.984375 4.5025024 2.984375 7.2048492l0 40.755478c0 5.62735 -4.5618896 10.189209 -10.189209 10.189209l-248.28305 0c-5.6273193 0 -10.189178 -4.561859 -10.189178 -10.189209z" fill-rule="nonzero"></path><path stroke="#666666" stroke-width="1.0" stroke-linejoin="round" stroke-linecap="butt" d="m362.70996 230.93831l0 0c0 -5.6273346 4.561859 -10.189178 10.189178 -10.189178l248.28305 0c2.7023315 0 5.2940063 1.0734863 7.204834 2.9843292c1.9108887 1.9108429 2.984375 4.5025024 2.984375 7.2048492l0 40.755478c0 5.62735 -4.5618896 10.189209 -10.189209 10.189209l-248.28305 0c-5.6273193 0 -10.189178 -4.561859 -10.189178 -10.189209z" fill-rule="nonzero"></path><path fill="#000000" d="m419.75787 239.72481l-5.859375 22.531235l-3.375 0l-4.75 -18.70311l-4.625 18.70311l-3.296875 0l-5.96875 -22.531235l3.078125 0l4.734375 18.73436l4.65625 -18.73436l3.046875 0l4.703125 18.906235l4.71875 -18.906235l2.9375 0zm6.905731 2.796875l-3.203125 0l0 -2.953125l3.203125 0l0 2.953125zm-0.1875 19.73436l-2.84375 0l0 -16.906235l2.84375 0l0 16.906235zm19.256256 0l-2.84375 0l0 -1.765625q-1.234375 1.046875 -2.5625 1.640625q-1.328125 0.59375 -2.890625 0.59375q-3.03125 0 -4.8125 -2.328125q-1.765625 -2.328125 -1.765625 -6.4687347q0 -2.140625 0.609375 -3.8125q0.609375 -1.6875 1.65625 -2.875q1.03125 -1.15625 2.390625 -1.75q1.375 -0.609375 2.84375 -0.609375q1.328125 0 2.359375 0.28125q1.03125 0.28125 2.171875 0.859375l0 -7.3125l2.84375 0l0 23.54686zm-2.84375 -4.15625l0 -9.70311q-1.15625 -0.515625 -2.0625 -0.71875q-0.90625 -0.203125 -1.984375 -0.203125q-2.390625 0 -3.71875 1.671875q-1.328125 1.671875 -1.328125 4.71875q0 3.0156097 1.015625 4.5937347q1.03125 1.5625 3.3125 1.5625q1.203125 0 2.4375 -0.53125q1.25 -0.546875 2.328125 -1.390625zm21.94403 2.234375q0 4.296875 -1.953125 6.3125q-1.953125 2.015625 -6.015625 2.015625q-1.34375 0 -2.625 -0.1875q-1.28125 -0.1875 -2.515625 -0.546875l0 -2.90625l0.15625 0q0.6875 0.28125 2.203125 0.671875q1.515625 0.40625 3.03125 0.40625q1.453125 0 2.40625 -0.34375q0.953125 -0.34375 1.484375 -0.96875q0.53125 -0.59375 0.75 -1.4375q0.234375 -0.828125 0.234375 -1.84375l0 -1.546875q-1.296875 1.03125 -2.46875 1.546875q-1.171875 0.5 -2.984375 0.5q-3.03125 0 -4.8125 -2.1875q-1.765625 -2.1875 -1.765625 -6.1718597q0 -2.1875 0.609375 -3.765625q0.609375 -1.578125 1.671875 -2.734375q0.984375 -1.078125 2.390625 -1.671875q1.40625 -0.59375 2.796875 -0.59375q1.46875 0 2.453125 0.296875q1.0 0.296875 2.109375 0.890625l0.171875 -0.71875l2.671875 0l0 14.98436zm-2.84375 -2.71875l0 -9.218735q-1.140625 -0.515625 -2.125 -0.734375q-0.96875 -0.21875 -1.9375 -0.21875q-2.34375 0 -3.6875 1.578125q-1.34375 1.5625 -1.34375 4.5625q0 2.8437347 0.984375 4.3124847q1.0 1.46875 3.328125 1.46875q1.234375 0 2.484375 -0.46875q1.25 -0.484375 2.296875 -1.28125zm22.38153 -3.5156097l-12.453125 0q0 1.5625 0.46875 2.7187347q0.46875 1.15625 1.28125 1.890625q0.78125 0.734375 1.859375 1.09375q1.09375 0.359375 2.390625 0.359375q1.734375 0 3.484375 -0.6875q1.75 -0.6875 2.484375 -1.34375l0.15625 0l0 3.09375q-1.4375 0.609375 -2.9375 1.015625q-1.5 0.40625 -3.15625 0.40625q-4.203125 0 -6.5625 -2.265625q-2.359375 -2.28125 -2.359375 -6.4843597q0 -4.140625 2.25 -6.578125q2.265625 -2.4375 5.96875 -2.4375q3.421875 0 5.265625 2.0q1.859375 2.0 1.859375 5.671875l0 1.546875zm-2.765625 -2.1875q-0.015625 -2.234375 -1.140625 -3.453125q-1.109375 -1.234375 -3.375 -1.234375q-2.28125 0 -3.640625 1.34375q-1.359375 1.34375 -1.53125 3.34375l9.6875 0zm15.652618 10.187485q-0.796875 0.21875 -1.75 0.34375q-0.9375 0.140625 -1.6875 0.140625q-2.5780945 0 -3.9374695 -1.390625q-1.34375 -1.390625 -1.34375 -4.46875l0 -8.98436l-1.921875 0l0 -2.390625l1.921875 0l0 -4.859375l2.84375 0l0 4.859375l5.8749695 0l0 2.390625l-5.8749695 0l0 7.703125q0 1.3281097 0.0625 2.0781097q0.0625 0.75 0.421875 1.40625q0.34375 0.609375 0.921875 0.890625q0.578125 0.265625 1.7812195 0.265625q0.6875 0 1.4375 -0.203125q0.765625 -0.203125 1.09375 -0.328125l0.15625 0l0 2.546875zm16.951263 0.15625l-2.8437805 0l0 -23.54686l2.8437805 0l0 23.54686zm18.6781 0l-2.828125 0l0 -1.796875q-0.375 0.25 -1.03125 0.71875q-0.640625 0.453125 -1.234375 0.734375q-0.71875 0.34375 -1.640625 0.578125q-0.921875 0.234375 -2.171875 0.234375q-2.28125 0 -3.875 -1.515625q-1.578125 -1.515625 -1.578125 -3.859375q0 -1.9218597 0.8125 -3.1093597q0.828125 -1.1875 2.359375 -1.875q1.546875 -0.671875 3.703125 -0.90625q2.171875 -0.25 4.65625 -0.375l0 -0.4375q0 -0.96875 -0.34375 -1.59375q-0.34375 -0.640625 -0.96875 -1.015625q-0.609375 -0.34375 -1.46875 -0.453125q-0.84375 -0.125 -1.765625 -0.125q-1.109375 0 -2.5 0.296875q-1.375 0.28125 -2.84375 0.84375l-0.140625 0l0 -2.890625q0.828125 -0.21875 2.390625 -0.484375q1.578125 -0.28125 3.109375 -0.28125q1.796875 0 3.109375 0.296875q1.328125 0.296875 2.296875 1.0q0.953125 0.703125 1.453125 1.8125q0.5 1.09375 0.5 2.734375l0 11.468735zm-2.828125 -4.15625l0 -4.7187347q-1.296875 0.078125 -3.0625 0.234375q-1.765625 0.15625 -2.796875 0.4375q-1.21875 0.34375 -1.984375 1.078125q-0.75 0.734375 -0.75 2.0312347q0 1.453125 0.875 2.1875q0.875 0.71875 2.671875 0.71875q1.5 0 2.734375 -0.578125q1.25 -0.578125 2.3125 -1.390625zm22.724243 -12.749985l-9.875 23.14061l-3.03125 0l3.140625 -7.046875l-6.734375 -16.093735l3.09375 0l5.1875 12.531235l5.234375 -12.531235l2.984375 0zm17.923523 8.453125q0 4.1406097 -2.125 6.5312347q-2.109375 2.390625 -5.65625 2.390625q-3.59375 0 -5.703125 -2.390625q-2.109375 -2.390625 -2.109375 -6.5312347q0 -4.125 2.109375 -6.515625q2.109375 -2.40625 5.703125 -2.40625q3.546875 0 5.65625 2.40625q2.125 2.390625 2.125 6.515625zm-2.921875 0q0 -3.28125 -1.296875 -4.875q-1.28125 -1.59375 -3.5625 -1.59375q-2.328125 0 -3.609375 1.59375q-1.265625 1.59375 -1.265625 4.875q0 3.1874847 1.28125 4.8281097q1.28125 1.640625 3.59375 1.640625q2.265625 0 3.5625 -1.625q1.296875 -1.625 1.296875 -4.8437347zm21.137512 8.45311l-2.84375 0l0 -1.875q-1.4375 1.140625 -2.75 1.75q-1.3125 0.59375 -2.90625 0.59375q-2.671875 0 -4.15625 -1.625q-1.484375 -1.625 -1.484375 -4.78125l0 -10.968735l2.859375 0l0 9.625q0 1.2812347 0.109375 2.2031097q0.125 0.921875 0.515625 1.5625q0.40625 0.671875 1.0625 0.984375q0.65625 0.296875 1.890625 0.296875q1.109375 0 2.421875 -0.578125q1.3125 -0.578125 2.4375 -1.46875l0 -12.624985l2.84375 0l0 16.906235zm14.165283 -0.15625q-0.796875 0.21875 -1.75 0.34375q-0.9375 0.140625 -1.6875 0.140625q-2.578125 0 -3.9375 -1.390625q-1.34375 -1.390625 -1.34375 -4.46875l0 -8.98436l-1.921875 0l0 -2.390625l1.921875 0l0 -4.859375l2.84375 0l0 4.859375l5.875 0l0 2.390625l-5.875 0l0 7.703125q0 1.3281097 0.0625 2.0781097q0.0625 0.75 0.421875 1.40625q0.34375 0.609375 0.921875 0.890625q0.578125 0.265625 1.78125 0.265625q0.6875 0 1.4375 -0.203125q0.765625 -0.203125 1.09375 -0.328125l0.15625 0l0 2.546875z" fill-rule="nonzero"></path><path fill="#d9d2e9" d="m57.97769 230.93831l0 0c0 -5.6273346 4.5618515 -10.189178 10.189178 -10.189178l248.28305 0c2.7023315 0 5.2940063 1.0734863 7.204834 2.9843292c1.9108582 1.9108429 2.9843445 4.5025024 2.9843445 7.2048492l0 40.755478c0 5.62735 -4.5618286 10.189209 -10.189178 10.189209l-248.28305 0c-5.627327 0 -10.189178 -4.561859 -10.189178 -10.189209z" fill-rule="nonzero"></path><path stroke="#666666" stroke-width="1.0" stroke-linejoin="round" stroke-linecap="butt" d="m57.97769 230.93831l0 0c0 -5.6273346 4.5618515 -10.189178 10.189178 -10.189178l248.28305 0c2.7023315 0 5.2940063 1.0734863 7.204834 2.9843292c1.9108582 1.9108429 2.9843445 4.5025024 2.9843445 7.2048492l0 40.755478c0 5.62735 -4.5618286 10.189209 -10.189178 10.189209l-248.28305 0c-5.627327 0 -10.189178 -4.561859 -10.189178 -10.189209z" fill-rule="nonzero"></path><path fill="#000000" d="m115.02559 239.72481l-5.859375 22.531235l-3.375 0l-4.75 -18.70311l-4.625 18.70311l-3.296875 0l-5.96875 -22.531235l3.078125 0l4.734375 18.73436l4.65625 -18.73436l3.046875 0l4.703125 18.906235l4.71875 -18.906235l2.9375 0zm6.905716 2.796875l-3.203125 0l0 -2.953125l3.203125 0l0 2.953125zm-0.1875 19.73436l-2.84375 0l0 -16.906235l2.84375 0l0 16.906235zm19.256256 0l-2.84375 0l0 -1.765625q-1.234375 1.046875 -2.5625 1.640625q-1.328125 0.59375 -2.890625 0.59375q-3.03125 0 -4.8125 -2.328125q-1.765625 -2.328125 -1.765625 -6.4687347q0 -2.140625 0.609375 -3.8125q0.609375 -1.6875 1.65625 -2.875q1.03125 -1.15625 2.390625 -1.75q1.375 -0.609375 2.84375 -0.609375q1.328125 0 2.359375 0.28125q1.03125 0.28125 2.171875 0.859375l0 -7.3125l2.84375 0l0 23.54686zm-2.84375 -4.15625l0 -9.70311q-1.15625 -0.515625 -2.0625 -0.71875q-0.90625 -0.203125 -1.984375 -0.203125q-2.390625 0 -3.71875 1.671875q-1.328125 1.671875 -1.328125 4.71875q0 3.0156097 1.015625 4.5937347q1.03125 1.5625 3.3125 1.5625q1.203125 0 2.4375 -0.53125q1.25 -0.546875 2.328125 -1.390625zm21.94403 2.234375q0 4.296875 -1.953125 6.3125q-1.953125 2.015625 -6.015625 2.015625q-1.34375 0 -2.625 -0.1875q-1.28125 -0.1875 -2.515625 -0.546875l0 -2.90625l0.15625 0q0.6875 0.28125 2.203125 0.671875q1.515625 0.40625 3.03125 0.40625q1.453125 0 2.40625 -0.34375q0.953125 -0.34375 1.484375 -0.96875q0.53125 -0.59375 0.75 -1.4375q0.234375 -0.828125 0.234375 -1.84375l0 -1.546875q-1.296875 1.03125 -2.46875 1.546875q-1.171875 0.5 -2.984375 0.5q-3.03125 0 -4.8125 -2.1875q-1.765625 -2.1875 -1.765625 -6.1718597q0 -2.1875 0.609375 -3.765625q0.609375 -1.578125 1.671875 -2.734375q0.984375 -1.078125 2.390625 -1.671875q1.40625 -0.59375 2.796875 -0.59375q1.46875 0 2.453125 0.296875q1.0 0.296875 2.109375 0.890625l0.171875 -0.71875l2.671875 0l0 14.98436zm-2.84375 -2.71875l0 -9.218735q-1.140625 -0.515625 -2.125 -0.734375q-0.96875 -0.21875 -1.9375 -0.21875q-2.34375 0 -3.6875 1.578125q-1.34375 1.5625 -1.34375 4.5625q0 2.8437347 0.984375 4.3124847q1.0 1.46875 3.328125 1.46875q1.234375 0 2.484375 -0.46875q1.25 -0.484375 2.296875 -1.28125zm22.38153 -3.5156097l-12.453125 0q0 1.5625 0.46875 2.7187347q0.46875 1.15625 1.28125 1.890625q0.78125 0.734375 1.859375 1.09375q1.09375 0.359375 2.390625 0.359375q1.734375 0 3.484375 -0.6875q1.75 -0.6875 2.484375 -1.34375l0.15625 0l0 3.09375q-1.4375 0.609375 -2.9375 1.015625q-1.5 0.40625 -3.15625 0.40625q-4.203125 0 -6.5625 -2.265625q-2.359375 -2.28125 -2.359375 -6.4843597q0 -4.140625 2.25 -6.578125q2.265625 -2.4375 5.96875 -2.4375q3.421875 0 5.265625 2.0q1.859375 2.0 1.859375 5.671875l0 1.546875zm-2.765625 -2.1875q-0.015625 -2.234375 -1.140625 -3.453125q-1.109375 -1.234375 -3.375 -1.234375q-2.28125 0 -3.640625 1.34375q-1.359375 1.34375 -1.53125 3.34375l9.6875 0zm15.652649 10.187485q-0.796875 0.21875 -1.75 0.34375q-0.9375 0.140625 -1.6875 0.140625q-2.578125 0 -3.9375 -1.390625q-1.34375 -1.390625 -1.34375 -4.46875l0 -8.98436l-1.921875 0l0 -2.390625l1.921875 0l0 -4.859375l2.84375 0l0 4.859375l5.875 0l0 2.390625l-5.875 0l0 7.703125q0 1.3281097 0.0625 2.0781097q0.0625 0.75 0.421875 1.40625q0.34375 0.609375 0.921875 0.890625q0.578125 0.265625 1.78125 0.265625q0.6875 0 1.4375 -0.203125q0.765625 -0.203125 1.09375 -0.328125l0.15625 0l0 2.546875zm16.951233 0.15625l-2.84375 0l0 -23.54686l2.84375 0l0 23.54686zm18.678131 0l-2.828125 0l0 -1.796875q-0.375 0.25 -1.03125 0.71875q-0.640625 0.453125 -1.234375 0.734375q-0.71875 0.34375 -1.640625 0.578125q-0.921875 0.234375 -2.171875 0.234375q-2.28125 0 -3.875 -1.515625q-1.578125 -1.515625 -1.578125 -3.859375q0 -1.9218597 0.8125 -3.1093597q0.828125 -1.1875 2.359375 -1.875q1.546875 -0.671875 3.703125 -0.90625q2.171875 -0.25 4.65625 -0.375l0 -0.4375q0 -0.96875 -0.34375 -1.59375q-0.34375 -0.640625 -0.96875 -1.015625q-0.609375 -0.34375 -1.46875 -0.453125q-0.84375 -0.125 -1.765625 -0.125q-1.109375 0 -2.5 0.296875q-1.375 0.28125 -2.84375 0.84375l-0.140625 0l0 -2.890625q0.828125 -0.21875 2.390625 -0.484375q1.578125 -0.28125 3.109375 -0.28125q1.796875 0 3.109375 0.296875q1.328125 0.296875 2.296875 1.0q0.953125 0.703125 1.453125 1.8125q0.5 1.09375 0.5 2.734375l0 11.468735zm-2.828125 -4.15625l0 -4.7187347q-1.296875 0.078125 -3.0625 0.234375q-1.765625 0.15625 -2.796875 0.4375q-1.21875 0.34375 -1.984375 1.078125q-0.75 0.734375 -0.75 2.0312347q0 1.453125 0.875 2.1875q0.875 0.71875 2.671875 0.71875q1.5 0 2.734375 -0.578125q1.25 -0.578125 2.3125 -1.390625zm22.724213 -12.749985l-9.875 23.14061l-3.03125 0l3.140625 -7.046875l-6.734375 -16.093735l3.09375 0l5.1875 12.531235l5.234375 -12.531235l2.984375 0zm17.923523 8.453125q0 4.1406097 -2.125 6.5312347q-2.109375 2.390625 -5.65625 2.390625q-3.59375 0 -5.703125 -2.390625q-2.109375 -2.390625 -2.109375 -6.5312347q0 -4.125 2.109375 -6.515625q2.109375 -2.40625 5.703125 -2.40625q3.546875 0 5.65625 2.40625q2.125 2.390625 2.125 6.515625zm-2.921875 0q0 -3.28125 -1.296875 -4.875q-1.28125 -1.59375 -3.5625 -1.59375q-2.328125 0 -3.609375 1.59375q-1.265625 1.59375 -1.265625 4.875q0 3.1874847 1.28125 4.8281097q1.28125 1.640625 3.59375 1.640625q2.265625 0 3.5625 -1.625q1.296875 -1.625 1.296875 -4.8437347zm21.137543 8.45311l-2.84375 0l0 -1.875q-1.4375 1.140625 -2.75 1.75q-1.3125 0.59375 -2.90625 0.59375q-2.671875 0 -4.15625 -1.625q-1.484375 -1.625 -1.484375 -4.78125l0 -10.968735l2.859375 0l0 9.625q0 1.2812347 0.109375 2.2031097q0.125 0.921875 0.515625 1.5625q0.40625 0.671875 1.0625 0.984375q0.65625 0.296875 1.890625 0.296875q1.109375 0 2.421875 -0.578125q1.3125 -0.578125 2.4375 -1.46875l0 -12.624985l2.84375 0l0 16.906235zm14.165283 -0.15625q-0.796875 0.21875 -1.75 0.34375q-0.9375 0.140625 -1.6875 0.140625q-2.578125 0 -3.9375 -1.390625q-1.34375 -1.390625 -1.34375 -4.46875l0 -8.98436l-1.921875 0l0 -2.390625l1.921875 0l0 -4.859375l2.84375 0l0 4.859375l5.875 0l0 2.390625l-5.875 0l0 7.703125q0 1.3281097 0.0625 2.0781097q0.0625 0.75 0.421875 1.40625q0.34375 0.609375 0.921875 0.890625q0.578125 0.265625 1.78125 0.265625q0.6875 0 1.4375 -0.203125q0.765625 -0.203125 1.09375 -0.328125l0.15625 0l0 2.546875z" fill-rule="nonzero"></path><path fill="#d9d2e9" d="m483.6811 382.68634l0 0c0 -5.6273193 4.561859 -10.189178 10.189178 -10.189178l248.28305 0c2.7023315 0 5.2940063 1.0734863 7.204834 2.9843445c1.9108887 1.9108276 2.984375 4.5025024 2.984375 7.204834l0 40.755493c0 5.6273193 -4.5618896 10.189178 -10.189209 10.189178l-248.28305 0c-5.6273193 0 -10.189178 -4.561859 -10.189178 -10.189178z" fill-rule="nonzero"></path><path stroke="#666666" stroke-width="1.0" stroke-linejoin="round" stroke-linecap="butt" d="m483.6811 382.68634l0 0c0 -5.6273193 4.561859 -10.189178 10.189178 -10.189178l248.28305 0c2.7023315 0 5.2940063 1.0734863 7.204834 2.9843445c1.9108887 1.9108276 2.984375 4.5025024 2.984375 7.204834l0 40.755493c0 5.6273193 -4.5618896 10.189178 -10.189209 10.189178l-248.28305 0c-5.6273193 0 -10.189178 -4.561859 -10.189178 -10.189178z" fill-rule="nonzero"></path><path fill="#000000" d="m548.1386 391.47284l-5.859375 22.53125l-3.375 0l-4.75 -18.703125l-4.625 18.703125l-3.296875 0l-5.96875 -22.53125l3.078125 0l4.734375 18.734375l4.65625 -18.734375l3.046875 0l4.703125 18.90625l4.71875 -18.90625l2.9375 0zm6.9057007 2.796875l-3.203125 0l0 -2.953125l3.203125 0l0 2.953125zm-0.1875 19.734375l-2.84375 0l0 -16.90625l2.84375 0l0 16.90625zm19.256226 0l-2.84375 0l0 -1.765625q-1.234375 1.046875 -2.5625 1.640625q-1.328125 0.59375 -2.890625 0.59375q-3.03125 0 -4.8125 -2.328125q-1.765625 -2.328125 -1.765625 -6.46875q0 -2.140625 0.609375 -3.8125q0.609375 -1.6875 1.65625 -2.875q1.03125 -1.15625 2.390625 -1.75q1.375 -0.609375 2.84375 -0.609375q1.328125 0 2.359375 0.28125q1.03125 0.28125 2.171875 0.859375l0 -7.3125l2.84375 0l0 23.546875zm-2.84375 -4.15625l0 -9.703125q-1.15625 -0.515625 -2.0625 -0.71875q-0.90625 -0.203125 -1.984375 -0.203125q-2.390625 0 -3.71875 1.671875q-1.328125 1.671875 -1.328125 4.71875q0 3.015625 1.015625 4.59375q1.03125 1.5625 3.3125 1.5625q1.203125 0 2.4375 -0.53125q1.25 -0.546875 2.328125 -1.390625zm21.94403 2.234375q0 4.296875 -1.953125 6.3125q-1.953125 2.015625 -6.015625 2.015625q-1.34375 0 -2.625 -0.1875q-1.28125 -0.1875 -2.515625 -0.546875l0 -2.90625l0.15625 0q0.6875 0.28125 2.203125 0.671875q1.515625 0.40625 3.03125 0.40625q1.453125 0 2.40625 -0.34375q0.953125 -0.34375 1.484375 -0.96875q0.53125 -0.59375 0.75 -1.4375q0.234375 -0.828125 0.234375 -1.84375l0 -1.546875q-1.296875 1.03125 -2.46875 1.546875q-1.171875 0.5 -2.984375 0.5q-3.03125 0 -4.8125 -2.1875q-1.765625 -2.1875 -1.765625 -6.171875q0 -2.1875 0.609375 -3.765625q0.609375 -1.578125 1.671875 -2.734375q0.984375 -1.078125 2.390625 -1.671875q1.40625 -0.59375 2.796875 -0.59375q1.46875 0 2.453125 0.296875q1.0 0.296875 2.109375 0.890625l0.171875 -0.71875l2.671875 0l0 14.984375zm-2.84375 -2.71875l0 -9.21875q-1.140625 -0.515625 -2.125 -0.734375q-0.96875 -0.21875 -1.9375 -0.21875q-2.34375 0 -3.6875 1.578125q-1.34375 1.5625 -1.34375 4.5625q0 2.84375 0.984375 4.3125q1.0 1.46875 3.328125 1.46875q1.234375 0 2.484375 -0.46875q1.25 -0.484375 2.296875 -1.28125zm22.38153 -3.515625l-12.453125 0q0 1.5625 0.46875 2.71875q0.46875 1.15625 1.28125 1.890625q0.78125 0.734375 1.859375 1.09375q1.09375 0.359375 2.390625 0.359375q1.734375 0 3.484375 -0.6875q1.75 -0.6875 2.484375 -1.34375l0.15625 0l0 3.09375q-1.4375 0.609375 -2.9375 1.015625q-1.5 0.40625 -3.15625 0.40625q-4.203125 0 -6.5625 -2.265625q-2.359375 -2.28125 -2.359375 -6.484375q0 -4.140625 2.25 -6.578125q2.265625 -2.4375 5.96875 -2.4375q3.421875 0 5.265625 2.0q1.859375 2.0 1.859375 5.671875l0 1.546875zm-2.765625 -2.1875q-0.015625 -2.234375 -1.140625 -3.453125q-1.109375 -1.234375 -3.375 -1.234375q-2.28125 0 -3.640625 1.34375q-1.359375 1.34375 -1.53125 3.34375l9.6875 0zm15.65271 10.1875q-0.796875 0.21875 -1.75 0.34375q-0.9375 0.140625 -1.6875 0.140625q-2.578125 0 -3.9375 -1.390625q-1.34375 -1.390625 -1.34375 -4.46875l0 -8.984375l-1.921875 0l0 -2.390625l1.921875 0l0 -4.859375l2.84375 0l0 4.859375l5.875 0l0 2.390625l-5.875 0l0 7.703125q0 1.328125 0.0625 2.078125q0.0625 0.75 0.421875 1.40625q0.34375 0.609375 0.921875 0.890625q0.578125 0.265625 1.78125 0.265625q0.6875 0 1.4375 -0.203125q0.765625 -0.203125 1.09375 -0.328125l0.15625 0l0 2.546875zm28.966797 -8.421875q0 2.109375 -0.609375 3.8125q-0.59375 1.6875 -1.609375 2.84375q-1.078125 1.1875 -2.359375 1.796875q-1.28125 0.59375 -2.828125 0.59375q-1.4375 0 -2.515625 -0.34375q-1.078125 -0.34375 -2.125 -0.90625l-0.171875 0.78125l-2.671875 0l0 -23.546875l2.84375 0l0 8.40625q1.203125 -0.984375 2.546875 -1.609375q1.34375 -0.625 3.03125 -0.625q3.0 0 4.734375 2.296875q1.734375 2.296875 1.734375 6.5zm-2.9375 0.078125q0 -3.03125 -1.0 -4.59375q-1.0 -1.578125 -3.234375 -1.578125q-1.234375 0 -2.515625 0.546875q-1.265625 0.53125 -2.359375 1.375l0 9.6875q1.21875 0.546875 2.078125 0.765625q0.875 0.203125 1.984375 0.203125q2.359375 0 3.703125 -1.546875q1.34375 -1.546875 1.34375 -4.859375zm10.022156 8.5l-2.84375 0l0 -23.546875l2.84375 0l0 23.546875zm19.943787 -8.453125q0 4.140625 -2.125 6.53125q-2.109375 2.390625 -5.65625 2.390625q-3.59375 0 -5.703125 -2.390625q-2.109375 -2.390625 -2.109375 -6.53125q0 -4.125 2.109375 -6.515625q2.109375 -2.40625 5.703125 -2.40625q3.546875 0 5.65625 2.40625q2.125 2.390625 2.125 6.515625zm-2.921875 0q0 -3.28125 -1.296875 -4.875q-1.28125 -1.59375 -3.5625 -1.59375q-2.328125 0 -3.609375 1.59375q-1.265625 1.59375 -1.265625 4.875q0 3.1875 1.28125 4.828125q1.28125 1.640625 3.59375 1.640625q2.265625 0 3.5625 -1.625q1.296875 -1.625 1.296875 -4.84375zm19.621948 7.390625q-1.421875 0.6875 -2.703125 1.0625q-1.265625 0.375 -2.703125 0.375q-1.84375 0 -3.375 -0.53125q-1.515625 -0.546875 -2.609375 -1.625q-1.109375 -1.09375 -1.71875 -2.75q-0.59375 -1.671875 -0.59375 -3.90625q0 -4.140625 2.265625 -6.5q2.28125 -2.359375 6.03125 -2.359375q1.453125 0 2.84375 0.40625q1.40625 0.40625 2.5625 1.0l0 3.15625l-0.140625 0q-1.3125 -1.015625 -2.703125 -1.546875q-1.375 -0.546875 -2.6875 -0.546875q-2.421875 0 -3.828125 1.625q-1.390625 1.625 -1.390625 4.765625q0 3.0625 1.359375 4.703125q1.375 1.640625 3.859375 1.640625q0.859375 0 1.75 -0.21875q0.890625 -0.234375 1.609375 -0.59375q0.625 -0.3125 1.15625 -0.671875q0.546875 -0.359375 0.875 -0.609375l0.140625 0l0 3.125zm18.831116 1.0625l-3.765625 0l-6.78125 -7.40625l-1.84375 1.765625l0 5.640625l-2.84375 0l0 -23.546875l2.84375 0l0 15.09375l8.21875 -8.453125l3.59375 0l-7.859375 7.8125l8.4375 9.09375z" fill-rule="nonzero"></path><path fill="#d9d2e9" d="m192.3084 384.0328l0 0c0 -5.62735 4.561859 -10.189209 10.189178 -10.189209l248.28307 0c2.7023315 0 5.2940063 1.0735168 7.204834 2.9843445c1.9108276 1.9108582 2.9843445 4.5025024 2.9843445 7.2048645l0 40.755493c0 5.6273193 -4.561859 10.189178 -10.189178 10.189178l-248.28307 0c-5.6273193 0 -10.189178 -4.561859 -10.189178 -10.189178z" fill-rule="nonzero"></path><path stroke="#666666" stroke-width="1.0" stroke-linejoin="round" stroke-linecap="butt" d="m192.3084 384.0328l0 0c0 -5.62735 4.561859 -10.189209 10.189178 -10.189209l248.28307 0c2.7023315 0 5.2940063 1.0735168 7.204834 2.9843445c1.9108276 1.9108582 2.9843445 4.5025024 2.9843445 7.2048645l0 40.755493c0 5.6273193 -4.561859 10.189178 -10.189178 10.189178l-248.28307 0c-5.6273193 0 -10.189178 -4.561859 -10.189178 -10.189178z" fill-rule="nonzero"></path><path fill="#000000" d="m256.7659 392.8193l-5.8593903 22.53125l-3.375 0l-4.75 -18.703125l-4.625 18.703125l-3.296875 0l-5.96875 -22.53125l3.078125 0l4.734375 18.734375l4.65625 -18.734375l3.046875 0l4.703125 18.90625l4.71875 -18.90625l2.9375153 0zm6.9057007 2.796875l-3.203125 0l0 -2.953125l3.203125 0l0 2.953125zm-0.1875 19.734375l-2.84375 0l0 -16.90625l2.84375 0l0 16.90625zm19.256256 0l-2.84375 0l0 -1.765625q-1.234375 1.046875 -2.5625 1.640625q-1.328125 0.59375 -2.890625 0.59375q-3.03125 0 -4.8125 -2.328125q-1.765625 -2.328125 -1.765625 -6.46875q0 -2.140625 0.609375 -3.8125q0.609375 -1.6875 1.65625 -2.875q1.03125 -1.15625 2.390625 -1.75q1.375 -0.609375 2.84375 -0.609375q1.328125 0 2.359375 0.28125q1.03125 0.28125 2.171875 0.859375l0 -7.3125l2.84375 0l0 23.546875zm-2.84375 -4.15625l0 -9.703125q-1.15625 -0.515625 -2.0625 -0.71875q-0.90625 -0.203125 -1.984375 -0.203125q-2.390625 0 -3.71875 1.671875q-1.328125 1.671875 -1.328125 4.71875q0 3.015625 1.015625 4.59375q1.03125 1.5625 3.3125 1.5625q1.203125 0 2.4375 -0.53125q1.25 -0.546875 2.328125 -1.390625zm21.94403 2.234375q0 4.296875 -1.953125 6.3125q-1.953125 2.015625 -6.015625 2.015625q-1.34375 0 -2.625 -0.1875q-1.28125 -0.1875 -2.515625 -0.546875l0 -2.90625l0.15625 0q0.6875 0.28125 2.203125 0.671875q1.515625 0.40625 3.03125 0.40625q1.453125 0 2.40625 -0.34375q0.953125 -0.34375 1.484375 -0.96875q0.53125 -0.59375 0.75 -1.4375q0.234375 -0.828125 0.234375 -1.84375l0 -1.546875q-1.296875 1.03125 -2.46875 1.546875q-1.171875 0.5 -2.984375 0.5q-3.03125 0 -4.8125 -2.1875q-1.765625 -2.1875 -1.765625 -6.171875q0 -2.1875 0.609375 -3.765625q0.609375 -1.578125 1.671875 -2.734375q0.984375 -1.078125 2.390625 -1.671875q1.40625 -0.59375 2.796875 -0.59375q1.46875 0 2.453125 0.296875q1.0 0.296875 2.109375 0.890625l0.171875 -0.71875l2.671875 0l0 14.984375zm-2.84375 -2.71875l0 -9.21875q-1.140625 -0.515625 -2.125 -0.734375q-0.96875 -0.21875 -1.9375 -0.21875q-2.34375 0 -3.6875 1.578125q-1.34375 1.5625 -1.34375 4.5625q0 2.84375 0.984375 4.3125q1.0 1.46875 3.328125 1.46875q1.234375 0 2.484375 -0.46875q1.25 -0.484375 2.296875 -1.28125zm22.38153 -3.515625l-12.453125 0q0 1.5625 0.46875 2.71875q0.46875 1.15625 1.28125 1.890625q0.78125 0.734375 1.859375 1.09375q1.09375 0.359375 2.390625 0.359375q1.734375 0 3.484375 -0.6875q1.75 -0.6875 2.484375 -1.34375l0.15625 0l0 3.09375q-1.4375 0.609375 -2.9375 1.015625q-1.5 0.40625 -3.15625 0.40625q-4.203125 0 -6.5625 -2.265625q-2.359375 -2.28125 -2.359375 -6.484375q0 -4.140625 2.25 -6.578125q2.265625 -2.4375 5.96875 -2.4375q3.421875 0 5.265625 2.0q1.859375 2.0 1.859375 5.671875l0 1.546875zm-2.765625 -2.1875q-0.015625 -2.234375 -1.140625 -3.453125q-1.109375 -1.234375 -3.375 -1.234375q-2.28125 0 -3.640625 1.34375q-1.359375 1.34375 -1.53125 3.34375l9.6875 0zm15.652649 10.1875q-0.796875 0.21875 -1.75 0.34375q-0.9375 0.140625 -1.6875 0.140625q-2.578125 0 -3.9375 -1.390625q-1.34375 -1.390625 -1.34375 -4.46875l0 -8.984375l-1.921875 0l0 -2.390625l1.921875 0l0 -4.859375l2.84375 0l0 4.859375l5.875 0l0 2.390625l-5.875 0l0 7.703125q0 1.328125 0.0625 2.078125q0.0625 0.75 0.421875 1.40625q0.34375 0.609375 0.921875 0.890625q0.578125 0.265625 1.78125 0.265625q0.6875 0 1.4375 -0.203125q0.765625 -0.203125 1.09375 -0.328125l0.15625 0l0 2.546875zm28.966827 -8.421875q0 2.109375 -0.609375 3.8125q-0.59375 1.6875 -1.609375 2.84375q-1.078125 1.1875 -2.359375 1.796875q-1.28125 0.59375 -2.828125 0.59375q-1.4375 0 -2.515625 -0.34375q-1.078125 -0.34375 -2.125 -0.90625l-0.171875 0.78125l-2.671875 0l0 -23.546875l2.84375 0l0 8.40625q1.203125 -0.984375 2.546875 -1.609375q1.34375 -0.625 3.03125 -0.625q3.0 0 4.734375 2.296875q1.734375 2.296875 1.734375 6.5zm-2.9375 0.078125q0 -3.03125 -1.0 -4.59375q-1.0 -1.578125 -3.234375 -1.578125q-1.234375 0 -2.515625 0.546875q-1.265625 0.53125 -2.359375 1.375l0 9.6875q1.21875 0.546875 2.078125 0.765625q0.875 0.203125 1.984375 0.203125q2.359375 0 3.703125 -1.546875q1.34375 -1.546875 1.34375 -4.859375zm10.022156 8.5l-2.84375 0l0 -23.546875l2.84375 0l0 23.546875zm19.943756 -8.453125q0 4.140625 -2.125 6.53125q-2.109375 2.390625 -5.65625 2.390625q-3.59375 0 -5.703125 -2.390625q-2.109375 -2.390625 -2.109375 -6.53125q0 -4.125 2.109375 -6.515625q2.109375 -2.40625 5.703125 -2.40625q3.546875 0 5.65625 2.40625q2.125 2.390625 2.125 6.515625zm-2.921875 0q0 -3.28125 -1.296875 -4.875q-1.28125 -1.59375 -3.5625 -1.59375q-2.328125 0 -3.609375 1.59375q-1.265625 1.59375 -1.265625 4.875q0 3.1875 1.28125 4.828125q1.28125 1.640625 3.59375 1.640625q2.265625 0 3.5625 -1.625q1.296875 -1.625 1.296875 -4.84375zm19.621948 7.390625q-1.421875 0.6875 -2.703125 1.0625q-1.265625 0.375 -2.703125 0.375q-1.84375 0 -3.375 -0.53125q-1.515625 -0.546875 -2.609375 -1.625q-1.109375 -1.09375 -1.71875 -2.75q-0.59375 -1.671875 -0.59375 -3.90625q0 -4.140625 2.265625 -6.5q2.28125 -2.359375 6.03125 -2.359375q1.453125 0 2.84375 0.40625q1.40625 0.40625 2.5625 1.0l0 3.15625l-0.140625 0q-1.3125 -1.015625 -2.703125 -1.546875q-1.375 -0.546875 -2.6875 -0.546875q-2.421875 0 -3.828125 1.625q-1.390625 1.625 -1.390625 4.765625q0 3.0625 1.359375 4.703125q1.375 1.640625 3.859375 1.640625q0.859375 0 1.75 -0.21875q0.890625 -0.234375 1.609375 -0.59375q0.625 -0.3125 1.15625 -0.671875q0.546875 -0.359375 0.875 -0.609375l0.140625 0l0 3.125zm18.831146 1.0625l-3.765625 0l-6.78125 -7.40625l-1.84375 1.765625l0 5.640625l-2.84375 0l0 -23.546875l2.84375 0l0 15.09375l8.21875 -8.453125l3.59375 0l-7.859375 7.8125l8.4375 9.09375z" fill-rule="nonzero"></path><path fill="#d9d2e9" d="m633.3609 534.4344l0 0c0 -5.6273193 4.5618286 -10.189209 10.189148 -10.189209l248.28308 0c2.7023315 0 5.2940063 1.0734863 7.204834 2.984375c1.9108276 1.9108276 2.984375 4.5025024 2.984375 7.204834l0 40.755493c0 5.6273193 -4.5618896 10.189148 -10.189209 10.189148l-248.28308 0c-5.6273193 0 -10.189148 -4.5618286 -10.189148 -10.189148z" fill-rule="nonzero"></path><path stroke="#666666" stroke-width="1.0" stroke-linejoin="round" stroke-linecap="butt" d="m633.3609 534.4344l0 0c0 -5.6273193 4.5618286 -10.189209 10.189148 -10.189209l248.28308 0c2.7023315 0 5.2940063 1.0734863 7.204834 2.984375c1.9108276 1.9108276 2.984375 4.5025024 2.984375 7.204834l0 40.755493c0 5.6273193 -4.5618896 10.189148 -10.189209 10.189148l-248.28308 0c-5.6273193 0 -10.189148 -4.5618286 -10.189148 -10.189148z" fill-rule="nonzero"></path><path fill="#000000" d="m697.81836 543.2209l-5.859375 22.53125l-3.375 0l-4.75 -18.703125l-4.625 18.703125l-3.296875 0l-5.96875 -22.53125l3.078125 0l4.734375 18.734375l4.65625 -18.734375l3.046875 0l4.703125 18.90625l4.71875 -18.90625l2.9375 0zm6.9057617 2.796875l-3.203125 0l0 -2.953125l3.203125 0l0 2.953125zm-0.1875 19.734375l-2.84375 0l0 -16.90625l2.84375 0l0 16.90625zm19.256226 0l-2.84375 0l0 -1.765625q-1.234375 1.046875 -2.5625 1.640625q-1.328125 0.59375 -2.890625 0.59375q-3.03125 0 -4.8125 -2.328125q-1.765625 -2.328125 -1.765625 -6.46875q0 -2.140625 0.609375 -3.8125q0.609375 -1.6875 1.65625 -2.875q1.03125 -1.15625 2.390625 -1.75q1.375 -0.609375 2.84375 -0.609375q1.328125 0 2.359375 0.28125q1.03125 0.28125 2.171875 0.859375l0 -7.3125l2.84375 0l0 23.546875zm-2.84375 -4.15625l0 -9.703125q-1.15625 -0.515625 -2.0625 -0.71875q-0.90625 -0.203125 -1.984375 -0.203125q-2.390625 0 -3.71875 1.671875q-1.328125 1.671875 -1.328125 4.71875q0 3.015625 1.015625 4.59375q1.03125 1.5625 3.3125 1.5625q1.203125 0 2.4375 -0.53125q1.25 -0.546875 2.328125 -1.390625zm21.94403 2.234375q0 4.296875 -1.953125 6.3125q-1.953125 2.015625 -6.015625 2.015625q-1.34375 0 -2.625 -0.1875q-1.28125 -0.1875 -2.515625 -0.546875l0 -2.90625l0.15625 0q0.6875 0.28125 2.203125 0.671875q1.515625 0.40625 3.03125 0.40625q1.453125 0 2.40625 -0.34375q0.953125 -0.34375 1.484375 -0.96875q0.53125 -0.59375 0.75 -1.4375q0.234375 -0.828125 0.234375 -1.84375l0 -1.546875q-1.296875 1.03125 -2.46875 1.546875q-1.171875 0.5 -2.984375 0.5q-3.03125 0 -4.8125 -2.1875q-1.765625 -2.1875 -1.765625 -6.171875q0 -2.1875 0.609375 -3.765625q0.609375 -1.578125 1.671875 -2.734375q0.984375 -1.078125 2.390625 -1.671875q1.40625 -0.59375 2.796875 -0.59375q1.46875 0 2.453125 0.296875q1.0 0.296875 2.109375 0.890625l0.171875 -0.71875l2.671875 0l0 14.984375zm-2.84375 -2.71875l0 -9.21875q-1.140625 -0.515625 -2.125 -0.734375q-0.96875 -0.21875 -1.9375 -0.21875q-2.34375 0 -3.6875 1.578125q-1.34375 1.5625 -1.34375 4.5625q0 2.84375 0.984375 4.3125q1.0 1.46875 3.328125 1.46875q1.234375 0 2.484375 -0.46875q1.25 -0.484375 2.296875 -1.28125zm22.38153 -3.515625l-12.453125 0q0 1.5625 0.46875 2.71875q0.46875 1.15625 1.28125 1.890625q0.78125 0.734375 1.859375 1.09375q1.09375 0.359375 2.390625 0.359375q1.734375 0 3.484375 -0.6875q1.75 -0.6875 2.484375 -1.34375l0.15625 0l0 3.09375q-1.4375 0.609375 -2.9375 1.015625q-1.5 0.40625 -3.15625 0.40625q-4.203125 0 -6.5625 -2.265625q-2.359375 -2.28125 -2.359375 -6.484375q0 -4.140625 2.25 -6.578125q2.265625 -2.4375 5.96875 -2.4375q3.421875 0 5.265625 2.0q1.859375 2.0 1.859375 5.671875l0 1.546875zm-2.765625 -2.1875q-0.015625 -2.234375 -1.140625 -3.453125q-1.109375 -1.234375 -3.375 -1.234375q-2.28125 0 -3.640625 1.34375q-1.359375 1.34375 -1.53125 3.34375l9.6875 0zm15.652649 10.1875q-0.796875 0.21875 -1.75 0.34375q-0.9375 0.140625 -1.6875 0.140625q-2.578125 0 -3.9375 -1.390625q-1.34375 -1.390625 -1.34375 -4.46875l0 -8.984375l-1.921875 0l0 -2.390625l1.921875 0l0 -4.859375l2.84375 0l0 4.859375l5.875 0l0 2.390625l-5.875 0l0 7.703125q0 1.328125 0.0625 2.078125q0.0625 0.75 0.421875 1.40625q0.34375 0.609375 0.921875 0.890625q0.578125 0.265625 1.78125 0.265625q0.6875 0 1.4375 -0.203125q0.765625 -0.203125 1.09375 -0.328125l0.15625 0l0 2.546875zm28.966858 -8.421875q0 2.109375 -0.609375 3.8125q-0.59375 1.6875 -1.609375 2.84375q-1.078125 1.1875 -2.359375 1.796875q-1.28125 0.59375 -2.828125 0.59375q-1.4375 0 -2.515625 -0.34375q-1.078125 -0.34375 -2.125 -0.90625l-0.171875 0.78125l-2.671875 0l0 -23.546875l2.84375 0l0 8.40625q1.203125 -0.984375 2.546875 -1.609375q1.34375 -0.625 3.03125 -0.625q3.0 0 4.734375 2.296875q1.734375 2.296875 1.734375 6.5zm-2.9375 0.078125q0 -3.03125 -1.0 -4.59375q-1.0 -1.578125 -3.234375 -1.578125q-1.234375 0 -2.515625 0.546875q-1.265625 0.53125 -2.359375 1.375l0 9.6875q1.21875 0.546875 2.078125 0.765625q0.875 0.203125 1.984375 0.203125q2.359375 0 3.703125 -1.546875q1.34375 -1.546875 1.34375 -4.859375zm10.022156 8.5l-2.84375 0l0 -23.546875l2.84375 0l0 23.546875zm19.943726 -8.453125q0 4.140625 -2.125 6.53125q-2.109375 2.390625 -5.65625 2.390625q-3.59375 0 -5.703125 -2.390625q-2.109375 -2.390625 -2.109375 -6.53125q0 -4.125 2.109375 -6.515625q2.109375 -2.40625 5.703125 -2.40625q3.546875 0 5.65625 2.40625q2.125 2.390625 2.125 6.515625zm-2.921875 0q0 -3.28125 -1.296875 -4.875q-1.28125 -1.59375 -3.5625 -1.59375q-2.328125 0 -3.609375 1.59375q-1.265625 1.59375 -1.265625 4.875q0 3.1875 1.28125 4.828125q1.28125 1.640625 3.59375 1.640625q2.265625 0 3.5625 -1.625q1.296875 -1.625 1.296875 -4.84375zm19.621948 7.390625q-1.421875 0.6875 -2.703125 1.0625q-1.265625 0.375 -2.703125 0.375q-1.84375 0 -3.375 -0.53125q-1.515625 -0.546875 -2.609375 -1.625q-1.109375 -1.09375 -1.71875 -2.75q-0.59375 -1.671875 -0.59375 -3.90625q0 -4.140625 2.265625 -6.5q2.28125 -2.359375 6.03125 -2.359375q1.453125 0 2.84375 0.40625q1.40625 0.40625 2.5625 1.0l0 3.15625l-0.140625 0q-1.3125 -1.015625 -2.703125 -1.546875q-1.375 -0.546875 -2.6875 -0.546875q-2.421875 0 -3.828125 1.625q-1.390625 1.625 -1.390625 4.765625q0 3.0625 1.359375 4.703125q1.375 1.640625 3.859375 1.640625q0.859375 0 1.75 -0.21875q0.890625 -0.234375 1.609375 -0.59375q0.625 -0.3125 1.15625 -0.671875q0.546875 -0.359375 0.875 -0.609375l0.140625 0l0 3.125zm18.831177 1.0625l-3.765625 0l-6.78125 -7.40625l-1.84375 1.765625l0 5.640625l-2.84375 0l0 -23.546875l2.84375 0l0 15.09375l8.21875 -8.453125l3.59375 0l-7.859375 7.8125l8.4375 9.09375z" fill-rule="nonzero"></path><path fill="#d9d2e9" d="m337.13516 537.12726l0 0c0 -5.6273193 4.561859 -10.189148 10.189178 -10.189148l248.28308 0c2.7023315 0 5.2940063 1.0734863 7.204834 2.984314c1.9108276 1.9108887 2.984314 4.5025024 2.984314 7.204834l0 40.755493c0 5.6273804 -4.5618286 10.189209 -10.189148 10.189209l-248.28308 0c-5.6273193 0 -10.189178 -4.5618286 -10.189178 -10.189209z" fill-rule="nonzero"></path><path stroke="#666666" stroke-width="1.0" stroke-linejoin="round" stroke-linecap="butt" d="m337.13516 537.12726l0 0c0 -5.6273193 4.561859 -10.189148 10.189178 -10.189148l248.28308 0c2.7023315 0 5.2940063 1.0734863 7.204834 2.984314c1.9108276 1.9108887 2.984314 4.5025024 2.984314 7.204834l0 40.755493c0 5.6273804 -4.5618286 10.189209 -10.189148 10.189209l-248.28308 0c-5.6273193 0 -10.189178 -4.5618286 -10.189178 -10.189209z" fill-rule="nonzero"></path><path fill="#000000" d="m401.59265 545.91376l-5.859375 22.53125l-3.375 0l-4.75 -18.703125l-4.625 18.703125l-3.296875 0l-5.96875 -22.53125l3.078125 0l4.734375 18.734375l4.65625 -18.734375l3.046875 0l4.703125 18.90625l4.71875 -18.90625l2.9375 0zm6.905731 2.796875l-3.203125 0l0 -2.953125l3.203125 0l0 2.953125zm-0.1875 19.734375l-2.84375 0l0 -16.90625l2.84375 0l0 16.90625zm19.256256 0l-2.84375 0l0 -1.765625q-1.234375 1.046875 -2.5625 1.640625q-1.328125 0.59375 -2.890625 0.59375q-3.03125 0 -4.8125 -2.328125q-1.765625 -2.328125 -1.765625 -6.46875q0 -2.140625 0.609375 -3.8125q0.609375 -1.6875 1.65625 -2.875q1.03125 -1.15625 2.390625 -1.75q1.375 -0.609375 2.84375 -0.609375q1.328125 0 2.359375 0.28125q1.03125 0.28125 2.171875 0.859375l0 -7.3125l2.84375 0l0 23.546875zm-2.84375 -4.15625l0 -9.703125q-1.15625 -0.515625 -2.0625 -0.71875q-0.90625 -0.203125 -1.984375 -0.203125q-2.390625 0 -3.71875 1.671875q-1.328125 1.671875 -1.328125 4.71875q0 3.015625 1.015625 4.59375q1.03125 1.5625 3.3125 1.5625q1.203125 0 2.4375 -0.53125q1.25 -0.546875 2.328125 -1.390625zm21.94403 2.234375q0 4.296875 -1.953125 6.3125q-1.953125 2.015625 -6.015625 2.015625q-1.34375 0 -2.625 -0.1875q-1.28125 -0.1875 -2.515625 -0.546875l0 -2.90625l0.15625 0q0.6875 0.28125 2.203125 0.671875q1.515625 0.40625 3.03125 0.40625q1.453125 0 2.40625 -0.34375q0.953125 -0.34375 1.484375 -0.96875q0.53125 -0.59375 0.75 -1.4375q0.234375 -0.828125 0.234375 -1.84375l0 -1.546875q-1.296875 1.03125 -2.46875 1.546875q-1.171875 0.5 -2.984375 0.5q-3.03125 0 -4.8125 -2.1875q-1.765625 -2.1875 -1.765625 -6.171875q0 -2.1875 0.609375 -3.765625q0.609375 -1.578125 1.671875 -2.734375q0.984375 -1.078125 2.390625 -1.671875q1.40625 -0.59375 2.796875 -0.59375q1.46875 0 2.453125 0.296875q1.0 0.296875 2.109375 0.890625l0.171875 -0.71875l2.671875 0l0 14.984375zm-2.84375 -2.71875l0 -9.21875q-1.140625 -0.515625 -2.125 -0.734375q-0.96875 -0.21875 -1.9375 -0.21875q-2.34375 0 -3.6875 1.578125q-1.34375 1.5625 -1.34375 4.5625q0 2.84375 0.984375 4.3125q1.0 1.46875 3.328125 1.46875q1.234375 0 2.484375 -0.46875q1.25 -0.484375 2.296875 -1.28125zm22.38153 -3.515625l-12.453125 0q0 1.5625 0.46875 2.71875q0.46875 1.15625 1.28125 1.890625q0.78125 0.734375 1.859375 1.09375q1.09375 0.359375 2.390625 0.359375q1.734375 0 3.484375 -0.6875q1.75 -0.6875 2.484375 -1.34375l0.15625 0l0 3.09375q-1.4375 0.609375 -2.9375 1.015625q-1.5 0.40625 -3.15625 0.40625q-4.203125 0 -6.5625 -2.265625q-2.359375 -2.28125 -2.359375 -6.484375q0 -4.140625 2.25 -6.578125q2.265625 -2.4375 5.96875 -2.4375q3.421875 0 5.265625 2.0q1.859375 2.0 1.859375 5.671875l0 1.546875zm-2.765625 -2.1875q-0.015625 -2.234375 -1.140625 -3.453125q-1.109375 -1.234375 -3.375 -1.234375q-2.28125 0 -3.640625 1.34375q-1.359375 1.34375 -1.53125 3.34375l9.6875 0zm15.652649 10.1875q-0.796875 0.21875 -1.75 0.34375q-0.9375 0.140625 -1.6875 0.140625q-2.578125 0 -3.9375 -1.390625q-1.34375 -1.390625 -1.34375 -4.46875l0 -8.984375l-1.921875 0l0 -2.390625l1.921875 0l0 -4.859375l2.84375 0l0 4.859375l5.875 0l0 2.390625l-5.875 0l0 7.703125q0 1.328125 0.0625 2.078125q0.0625 0.75 0.421875 1.40625q0.34375 0.609375 0.921875 0.890625q0.578125 0.265625 1.78125 0.265625q0.6875 0 1.4375 -0.203125q0.765625 -0.203125 1.09375 -0.328125l0.15625 0l0 2.546875zm28.966827 -8.421875q0 2.109375 -0.609375 3.8125q-0.59375 1.6875 -1.609375 2.84375q-1.078125 1.1875 -2.359375 1.796875q-1.28125 0.59375 -2.828125 0.59375q-1.4375 0 -2.515625 -0.34375q-1.078125 -0.34375 -2.125 -0.90625l-0.171875 0.78125l-2.671875 0l0 -23.546875l2.84375 0l0 8.40625q1.203125 -0.984375 2.546875 -1.609375q1.34375 -0.625 3.03125 -0.625q3.0 0 4.734375 2.296875q1.734375 2.296875 1.734375 6.5zm-2.9375 0.078125q0 -3.03125 -1.0 -4.59375q-1.0 -1.578125 -3.234375 -1.578125q-1.234375 0 -2.515625 0.546875q-1.265625 0.53125 -2.359375 1.375l0 9.6875q1.21875 0.546875 2.078125 0.765625q0.875 0.203125 1.984375 0.203125q2.359375 0 3.703125 -1.546875q1.34375 -1.546875 1.34375 -4.859375zm10.022186 8.5l-2.84375 0l0 -23.546875l2.84375 0l0 23.546875zm19.943726 -8.453125q0 4.140625 -2.125 6.53125q-2.109375 2.390625 -5.65625 2.390625q-3.59375 0 -5.703125 -2.390625q-2.109375 -2.390625 -2.109375 -6.53125q0 -4.125 2.109375 -6.515625q2.109375 -2.40625 5.703125 -2.40625q3.546875 0 5.65625 2.40625q2.125 2.390625 2.125 6.515625zm-2.921875 0q0 -3.28125 -1.296875 -4.875q-1.28125 -1.59375 -3.5625 -1.59375q-2.328125 0 -3.609375 1.59375q-1.265625 1.59375 -1.265625 4.875q0 3.1875 1.28125 4.828125q1.28125 1.640625 3.59375 1.640625q2.265625 0 3.5625 -1.625q1.296875 -1.625 1.296875 -4.84375zm19.621948 7.390625q-1.421875 0.6875 -2.703125 1.0625q-1.265625 0.375 -2.703125 0.375q-1.84375 0 -3.375 -0.53125q-1.515625 -0.546875 -2.609375 -1.625q-1.109375 -1.09375 -1.71875 -2.75q-0.59375 -1.671875 -0.59375 -3.90625q0 -4.140625 2.265625 -6.5q2.28125 -2.359375 6.03125 -2.359375q1.453125 0 2.84375 0.40625q1.40625 0.40625 2.5625 1.0l0 3.15625l-0.140625 0q-1.3125 -1.015625 -2.703125 -1.546875q-1.375 -0.546875 -2.6875 -0.546875q-2.421875 0 -3.828125 1.625q-1.390625 1.625 -1.390625 4.765625q0 3.0625 1.359375 4.703125q1.375 1.640625 3.859375 1.640625q0.859375 0 1.75 -0.21875q0.890625 -0.234375 1.609375 -0.59375q0.625 -0.3125 1.15625 -0.671875q0.546875 -0.359375 0.875 -0.609375l0.140625 0l0 3.125zm18.831177 1.0625l-3.765625 0l-6.78125 -7.40625l-1.84375 1.765625l0 5.640625l-2.84375 0l0 -23.546875l2.84375 0l0 15.09375l8.21875 -8.453125l3.59375 0l-7.859375 7.8125l8.4375 9.09375z" fill-rule="nonzero"></path></g></svg>

